<?xml version="1.0" standalone="no"?>
<!DOCTYPE svg PUBLIC "-//W3C//DTD SVG 20010904//EN"
 "http://www.w3.org/TR/2001/REC-SVG-20010904/DTD/svg10.dtd">
<svg version="1.0" xmlns="http://www.w3.org/2000/svg"
 width="877.000000pt" height="211.000000pt" viewBox="0 0 877.000000 211.000000"
 preserveAspectRatio="xMidYMid meet">

<g transform="translate(0.000000,211.000000) scale(0.100000,-0.100000)"
fill="#000000" stroke="none">
<path d="M2280 1843 c-47 -8 -137 -32 -200 -52 -161 -53 -216 -57 -412 -28
-16 2 -73 -77 -418 -588 -69 -101 -127 -184 -130 -184 -3 -1 -33 36 -66 82
-190 255 -479 635 -498 654 -19 20 -25 21 -76 11 -32 -6 -108 -8 -182 -5
l-128 6 -2 -794 -3 -795 213 0 212 0 0 427 c0 363 2 425 14 413 15 -16 114
-162 354 -517 86 -128 159 -233 162 -233 3 1 41 53 84 118 44 64 117 173 164
241 l84 123 27 -44 c50 -85 90 -134 162 -204 231 -221 557 -335 924 -321 77 3
176 12 220 22 179 37 359 115 491 212 l64 47 0 378 0 378 -328 0 c-181 0 -431
3 -556 7 l-226 6 2 -183 3 -184 288 3 c201 2 287 -1 287 -8 0 -7 -23 -11 -58
-11 -33 0 -108 -3 -168 -7 l-109 -8 160 -5 160 -5 3 -72 c3 -73 3 -73 -30 -93
-17 -10 -65 -27 -105 -36 -40 -10 -73 -22 -73 -26 0 -5 7 -22 15 -38 11 -21
12 -36 5 -54 -5 -14 -7 -26 -4 -26 2 0 8 10 13 22 7 20 13 13 50 -61 23 -45
40 -86 36 -89 -3 -3 -85 -6 -183 -6 -153 0 -188 3 -262 23 -237 64 -413 196
-501 377 -69 141 -75 288 -20 434 11 31 71 141 132 245 116 197 149 263 149
296 0 10 4 19 8 19 4 0 46 -77 92 -171 47 -94 88 -172 91 -175 4 -2 32 8 62
21 203 93 457 59 620 -85 l35 -30 203 146 c112 81 206 149 208 150 18 15 -157
130 -276 183 -105 46 -214 78 -332 97 -110 18 -342 16 -451 -3z"/>
<path d="M3585 1081 c-3 -2 -5 -87 -5 -188 l0 -183 65 0 64 0 3 98 3 97 55
-82 c30 -46 58 -83 62 -83 4 0 30 33 58 74 27 41 54 77 60 81 6 4 10 -27 10
-90 l0 -96 63 3 62 3 3 174 c1 111 -1 178 -8 186 -9 10 -82 14 -121 6 -3 0
-32 -39 -64 -86 -32 -46 -61 -83 -65 -80 -4 2 -28 36 -54 74 -66 99 -68 100
-132 99 -30 -1 -57 -4 -59 -7z"/>
<path d="M4294 1065 c-14 -21 -164 -342 -164 -350 0 -3 32 -5 70 -5 65 0 71 2
82 25 11 24 16 25 90 25 74 0 79 -1 90 -25 10 -23 16 -25 80 -25 37 0 68 4 68
9 0 18 -160 355 -172 362 -7 5 -39 7 -72 6 -46 -2 -62 -6 -72 -22z m116 -217
c0 -5 -18 -8 -40 -8 l-40 0 21 42 21 42 19 -35 c10 -18 18 -37 19 -41z"/>
<path d="M4722 1069 c-107 -53 -90 -170 31 -203 29 -8 71 -18 95 -21 45 -7 65
-30 41 -47 -20 -13 -108 -3 -152 18 l-38 18 -35 -36 -36 -35 44 -22 c90 -43
221 -50 289 -16 67 35 92 120 47 163 -29 26 -62 39 -142 53 -65 11 -94 28 -81
49 9 15 90 12 132 -5 36 -15 37 -15 70 17 39 38 34 48 -40 72 -70 23 -172 21
-225 -5z"/>
<path d="M5070 1040 l0 -50 65 0 65 0 0 -140 0 -140 65 0 65 0 0 140 0 139 68
3 67 3 3 33 c6 60 0 62 -209 62 l-189 0 0 -50z"/>
<path d="M5526 1082 c-3 -3 -6 -88 -6 -189 l0 -183 180 0 180 0 0 45 0 45
-115 0 -115 0 0 25 0 25 104 0 104 0 4 39 c2 22 2 45 0 50 -2 7 -43 11 -108
11 -97 0 -104 1 -104 20 0 19 7 20 115 20 l115 0 0 50 0 51 -174 -1 c-96 -1
-177 -4 -180 -8z"/>
<path d="M5957 1083 c-4 -3 -7 -89 -7 -190 l0 -183 65 0 65 0 0 55 c0 48 3 55
19 55 11 0 41 -24 68 -55 l48 -55 68 0 c37 0 67 3 67 6 0 4 -21 32 -46 63 -42
51 -44 56 -27 68 36 25 61 56 65 82 11 75 -40 133 -132 151 -59 11 -243 14
-253 3z m239 -107 c15 -12 17 -18 8 -33 -8 -13 -26 -19 -68 -21 l-56 -3 0 36
0 35 48 0 c27 0 57 -6 68 -14z"/>
<path d="M6570 1081 c-73 -24 -143 -85 -156 -137 -11 -45 2 -112 30 -149 15
-19 51 -47 79 -62 69 -36 167 -37 245 -3 l52 22 0 79 0 79 -96 0 c-93 0 -95
-1 -92 -22 3 -21 9 -23 66 -26 l62 -3 0 -34 c0 -40 -23 -59 -82 -69 -76 -14
-166 33 -194 99 -16 39 -4 98 27 131 52 55 169 69 239 27 29 -17 31 -17 51 3
l21 21 -47 23 c-51 25 -160 36 -205 21z"/>
<path d="M6933 1084 c-10 -4 -13 -52 -13 -190 l0 -185 33 3 c32 3 32 3 35 66
l3 62 52 -1 c51 0 53 -1 106 -65 47 -55 59 -64 88 -64 18 0 33 3 33 6 0 4 -23
33 -51 66 -29 32 -50 60 -48 61 2 1 21 11 42 21 94 48 87 162 -12 204 -36 15
-243 28 -268 16z m251 -75 c21 -16 26 -28 24 -53 -4 -44 -51 -66 -145 -66
l-71 0 -4 70 -3 70 86 0 c73 0 91 -3 113 -21z"/>
<path d="M7362 1082 c-9 -7 -12 -51 -10 -188 l3 -179 168 -3 167 -2 0 25 0 25
-135 0 -136 0 3 58 3 57 118 3 117 3 0 24 0 25 -120 0 -120 0 0 50 0 49 133 3
132 3 0 25 0 25 -155 2 c-85 2 -161 -1 -168 -5z"/>
<path d="M7774 1077 c-2 -7 -3 -91 -2 -187 l3 -175 168 -3 167 -2 0 25 0 25
-135 0 -136 0 3 58 3 57 118 3 117 3 0 24 0 25 -120 0 -120 0 0 50 0 49 133 3
132 3 0 25 0 25 -163 2 c-121 1 -164 -1 -168 -10z"/>
<path d="M8207 1084 c-4 -4 -7 -90 -7 -191 l0 -183 35 0 35 0 0 135 c0 134 6
154 32 116 7 -10 62 -71 122 -135 97 -104 112 -116 142 -116 l34 0 -2 188 -3
187 -30 0 -30 0 -5 -139 -5 -138 -109 118 c-60 66 -117 127 -126 137 -18 19
-71 32 -83 21z"/>
<path d="M2534 598 c-5 -8 -2 -9 9 -5 14 5 16 2 11 -21 -5 -25 -4 -26 10 -9
16 21 11 47 -9 47 -8 0 -17 -5 -21 -12z"/>
<path d="M3690 524 c-157 -68 -143 -250 24 -304 49 -16 136 -7 179 17 29 17
32 24 35 73 4 65 -2 70 -85 70 -86 0 -91 -18 -6 -22 l68 -3 3 -46 c3 -46 2
-47 -38 -63 -49 -20 -129 -21 -173 -2 -18 7 -45 28 -62 45 -26 28 -30 40 -30
86 0 46 4 58 30 86 17 17 44 38 62 45 46 20 130 17 180 -6 24 -10 45 -15 48
-11 2 5 -17 18 -44 30 -59 25 -140 27 -191 5z"/>
<path d="M4044 527 c-9 -24 1 -307 11 -310 6 -1 11 25 13 61 l3 62 61 0 62 0
62 -67 c73 -79 86 -73 18 7 l-46 54 32 11 c110 37 106 153 -6 184 -57 16 -203
14 -210 -2z m243 -33 c31 -23 38 -43 29 -80 -10 -39 -54 -54 -156 -54 l-90 0
0 81 0 81 94 -4 c77 -2 100 -7 123 -24z"/>
<path d="M4567 503 c-51 -82 -148 -274 -145 -285 3 -7 17 9 32 35 l28 47 114
0 114 0 20 -39 c20 -39 40 -61 40 -43 0 14 -159 310 -170 317 -5 3 -20 -11
-33 -32z m77 -82 c25 -46 46 -90 46 -97 0 -11 -22 -14 -100 -14 -55 0 -100 3
-100 6 0 10 102 196 105 192 1 -2 24 -41 49 -87z"/>
<path d="M4879 519 c-6 -175 -3 -299 9 -299 9 0 12 34 12 138 l0 137 73 -112
c39 -62 75 -113 79 -113 4 0 40 51 80 112 l73 113 3 -138 c4 -192 22 -178 22
17 0 85 -4 157 -9 160 -5 4 -44 -48 -86 -114 -43 -66 -80 -120 -84 -120 -3 1
-37 50 -75 110 -78 125 -96 145 -97 109z"/>
<path d="M5503 527 c-25 -31 -163 -292 -163 -306 0 -21 19 -1 40 40 l20 39
115 0 115 0 20 -39 c21 -41 40 -61 40 -40 0 17 -155 305 -170 314 -4 3 -12 -1
-17 -8z m70 -118 c25 -48 43 -90 40 -93 -9 -9 -191 -7 -196 2 -6 12 95 195
103 185 4 -4 28 -47 53 -94z"/>
<path d="M5833 521 c-35 -22 -48 -50 -39 -87 8 -29 40 -46 131 -68 78 -19 105
-38 105 -72 0 -60 -118 -85 -209 -44 -49 23 -66 20 -28 -5 101 -66 260 -34
260 52 0 40 -41 69 -125 88 -88 20 -118 37 -118 70 0 58 101 84 190 49 58 -23
63 -9 6 16 -61 26 -131 26 -173 1z"/>
<path d="M6357 533 c-6 -6 -10 -312 -4 -314 20 -6 232 -9 245 -2 11 5 -28 10
-103 13 l-120 5 0 65 0 65 108 3 c143 4 140 22 -3 22 l-111 0 3 63 3 62 118 3
c73 2 115 6 112 12 -7 11 -238 14 -248 3z"/>
<path d="M6910 374 c0 -107 3 -163 10 -159 6 3 10 33 10 66 l0 59 91 0 c110 0
155 17 176 67 19 47 1 81 -57 111 -36 18 -61 22 -137 22 l-93 0 0 -166z m237
120 c20 -15 29 -31 31 -57 3 -32 -1 -39 -30 -57 -27 -16 -50 -20 -125 -20
l-93 0 0 81 0 81 94 -4 c77 -2 100 -7 123 -24z"/>
<path d="M7479 517 c-27 -18 -35 -31 -37 -59 -4 -46 18 -62 118 -88 87 -22
120 -43 120 -75 0 -61 -117 -87 -209 -45 -49 23 -51 23 -51 12 0 -15 74 -44
126 -49 91 -10 154 27 154 88 0 39 -38 65 -123 84 -40 9 -82 23 -94 31 -31 20
-29 58 3 83 32 25 115 28 154 6 29 -17 54 -19 45 -5 -12 19 -77 40 -125 40
-32 0 -58 -7 -81 -23z"/>
<path d="M7915 528 c-80 -28 -131 -100 -122 -169 7 -54 42 -98 101 -125 88
-41 183 -27 248 38 64 64 63 144 -2 207 -58 56 -149 76 -225 49z m189 -42 c48
-36 71 -83 62 -129 -33 -178 -351 -162 -351 18 0 52 25 90 81 123 57 34 156
28 208 -12z"/>
<path d="M8342 520 c-18 -11 -37 -32 -42 -46 -19 -49 17 -80 120 -104 71 -16
107 -35 115 -60 7 -23 -8 -56 -35 -70 -32 -17 -127 -12 -172 10 -47 23 -48 23
-48 12 0 -17 77 -45 135 -49 71 -5 124 18 140 61 16 45 -10 77 -80 98 -33 11
-78 24 -99 31 -46 14 -61 34 -53 69 12 47 99 63 177 32 56 -23 63 -9 9 16 -57
26 -125 26 -167 0z"/>
<path d="M7300 375 c0 -97 4 -155 10 -155 6 0 10 58 10 155 0 97 -4 155 -10
155 -6 0 -10 -58 -10 -155z"/>
</g>
</svg>
